/* XPM */
static char *gem_0_xpm[] = {
"16 16 6 1",
" 	c None",
"1	c #180E0E",
"2	c #D76B6B",
"3	c #D72B2B",
"4	c #FFFFFF",
"5	c #B30000",
"      1111      ",
"    11222211    ",
"   1223333441   ",
"  123333344341  ",
" 12333324434351 ",
" 12333244543351 ",
" 12332443433351 ",
" 12334434533351 ",
" 12344243533351 ",
" 12443433533351 ",
" 14434233533351 ",
" 14343355333351 ",
"  143333333351  ",
"   1223333551   ",
"    11555511    ",
"      1111      "
};
