/* XPM */
static char *player_0_xpm[] = {
"32 32 14 1",
" 	c None",
"1	c #000010",
"2	c #384060",
"3	c #30B050",
"4	c #F80000",
"5	c #A8A8C0",
"6	c #306030",
"7	c #606888",
"8	c #004008",
"9	c #380000",
"A	c #983000",
"B	c #D86028",
"C	c #E8E8E8",
"D	c #FFFFFF",
"                                ",
"               11               ",
"           1111121111           ",
"           1333141331           ",
"           1111121111           ",
"              1151              ",
"              1151              ",
"              1171              ",
"             181211             ",
"          11 161161 11          ",
" 11111111111 111111 171         ",
"124255557722119AA911151         ",
"11111111111119ABCA91111111111111",
"         121619AB911227755552421",
"         1B13811118311111111111 ",
"         1A1886116881A1         ",
"          183812138381          ",
"          133817138331          ",
"          138817168831          ",
"       111186817168681111       ",
"      17771638151683617771      ",
"      12221318151681312221      ",
"      1CCC136315183631CCC1      ",
"      1CCC131612136131CCC1      ",
"      15551311141811315551      ",
"      17771361121816317771      ",
"      12221633311333612221      ",
"      11111131333313111111      ",
"           1613333161           ",
"            11833811            ",
"             111111             ",
"                                "
};
