/* XPM */
static char *Steps_xpm[] = {
"128 32 93 2",
"AA	c #1A4224",
"BA	c #173B20",
"CA	c #122D18",
"DA	c #0D2112",
"EA	c #08150B",
"FA	c #0A1A0E",
"GA	c #0F2615",
"HA	c #13311B",
"IA	c #193F22",
"JA	c #1A4124",
"KA	c #194223",
"LA	c #194123",
"MA	c #112B18",
"NA	c #000000",
"OA	c #030905",
"PA	c #15361E",
"QA	c #15351D",
"RA	c #060F08",
"SA	c #0D2213",
"TA	c #09160C",
"UA	c #0C1D10",
"VA	c #0B1B0F",
"WA	c #13301A",
"XA	c #17391F",
"YA	c #194224",
"ZA	c #194022",
"aA	c #010302",
"bA	c #183D21",
"cA	c #16381E",
"dA	c #14331C",
"eA	c #15341C",
"fA	c #0E2514",
"gA	c #183C21",
"hA	c #122F19",
"iA	c #122C18",
"jA	c #1A4223",
"kA	c #16391F",
"lA	c #08140B",
"mA	c #15341D",
"nA	c #0E2313",
"oA	c #061009",
"pA	c #09180D",
"qA	c #040A05",
"rA	c #050C07",
"sA	c #112A17",
"tA	c #030704",
"uA	c #050D07",
"vA	c #0F2715",
"wA	c #0C1F11",
"xA	c #071109",
"yA	c #183E22",
"zA	c #14321B",
"0A	c #122D19",
"1A	c #183E21",
"2A	c #13331C",
"3A	c #0C2011",
"4A	c #0B1C0F",
"5A	c #020603",
"6A	c #16371E",
"7A	c #0A1B0F",
"8A	c #0B1C10",
"9A	c #122E19",
"+A	c #173A20",
"/A	c #112C18",
"AB	c #07120A",
"BB	c #0E2413",
"CB	c #102A17",
"DB	c #0F2514",
"EB	c #194023",
"FB	c #1A4123",
"GB	c #040B06",
"HB	c #15391F",
"IB	c #132F1A",
"JB	c #193E22",
"KB	c #16381F",
"LB	c #173C20",
"MB	c #112C17",
"NB	c #0A1B0E",
"OB	c #193F23",
"PB	c #050E07",
"QB	c #0E2213",
"RB	c #0E2414",
"SB	c #08150C",
"TB	c #102916",
"UB	c #07130A",
"VB	c #0A190E",
"WB	c #14341C",
"XB	c #0D2012",
"YB	c #102816",
"ZB	c #15361D",
"aB	c #09170C",
"bB	c #0C1E10",
"cB	c #14321C",
"AAAAAAAAAAAAAAAAAAAAAAAAAAAAAAAAAAAAAAAAAAAAAAAAAAAAAAAAAAAAAAAAAAAAAAAAAAAAAAAAAAAAAAAAAAAAAAAAAAAAAAAAAAAAAAAAAAAAAAAAAAAAAAAAAAAAAAAAAAAAAAAAAAAAAAAAAAAAAAAAAAAAAAAAAAAAAAAAAAAAAAAAAAAAAAAAAAAAAAAAAAAAAAAAAAAAAAAAAAAAAAAAAAAAAAAAAAAAAAAAAAAAAAAAAAAAAAAA",
"AAAAAAAAAAAAAAAAAAAAAAAAAAAAAAAAAAAAAAAAAAAAAAAAAAAAAAAAAAAAAAAAAAAAAAAAAAAAAAAAAAAAAAAAAAAAAAAAAAAAAAAAAAAAAAAAAAAAAAAAAAAAAAAAAAAAAAAAAAAAAAAAAAAAAAAAAAAAAAAAAAAAAAAAAAAAAAAAAAAAAAAAAAAAAAAAAAAAAAAAAAAAAAAAAAAAAAAAAAAAAAAAAAAAAAAAAAAAAAAAAAAAAAAAAAAAAAAA",
"AAAAAAAAAAAAAAAAAAAAAAAAAAAAAAAAAAAAAAAAAAAAAAAAAAAAAAAAAAAAAAAAAAAAAAAAAAAAAAAAAAAAAAAAAAAAAAAAAAAAAAAAAAAAAAAAAAAAAAAAAAAAAAAAAAAAAAAAAAAAAAAAAAAAAAAAAAAAAAAAAAAAAAAAAAAAAAAAAAAAAAAAAAAAAAAAAAAAAAAAAAAAAAAAAAAAAAAAAAAAAAAAAAAAAAAAAAAAAAAAAAAAAAAAAAAAAAAA",
"AAAAAAAAAAAAAAAAAAAAAAAAAAAAAAAAAAAAAAAAAAAAAAAAAAAAAAAAAAAAAAAAAAAAAAAAAAAAAAAAAAAAAAAAAAAAAAAAAAAAAAAAAAAAAAAAAAAAAAAAAAAAAAAAAAAAAAAAAAAAAAAAAAAAAAAAAAAAAAAAAAAAAAAAAAAAAAAAAAAAAAAAAAAAAAAAAAAAAAAAAAAAAAAAAAAAAAAAAAAAAAAAAAAAAAAAAAAAAAAAAAAAAAAAAAAAAAAA",
"AAAAAAAAAAAAAAAAAAAAAAAAAAAAAAAAAAAAAAAAAAAAAAAAAAAAAAAAAAAAAAAAAAAAAAAAAAAAAAAAAAAAAAAAAAAAAAAAAAAAAAAAAAAAAAAAAAAAAAAAAAAAAAAAAAAAAAAAAAAAAAAAAAAAAAAAAAAAAAAAAAAAAAAAAAAAAAAAAAAAAAAAAAAAAAAAAAAAAAAAAAAAAAAAAAAAAAAAAAAAAAAAAAAAAAAAAAAAAAAAAAAAAAAAAAAAAAAA",
"AAAAAAAAAAAAAABACADAEAFAGAHAIAAAAAAAAAAAAAAAJAAAAAAAAAAAAAAAAAAAAAAAAAAAAAAAAAAAAAAAAAAAAAAAAAAAAAAAAAAAAAAAAAAAAAAAAAAAAAAAAAAAAAAAAAAAAAAAAAAAAAAAAAAAAAAAAAAAAAAAAAAAAAAAAAAAAAAAAAAAAAAAAAAAAAAAAAAAAAAAAAAAAAAAAAAAAAAAAAAAAAAAAAAAAAAAAAAAAAAAAAAAAAAAAAAA",
"AAAAKAKALAJAMANANANANANANANAOAPAAAAAAAAAAAQARAPAAAAAAAAAAAAAAAAAAAAAAAAAAAAAAAAAAAAAAAAAAAAAAAAAAAAAAAAAAAAAAAAAAAAAAAAAAAAAAAAAAAAAAAAAAAAAAAAAAAAAAAAAAAAAAAAAAAAAAAAAAAAAAAAAAAAAAAAAAAAAAAAAAAAAAAAAAAAAAAAAAAAAAAAAAAAAAAAAAAAAAAAAAAAAAAAAAAAAAAAAAAAAAAAA",
"AAKAKALALASANANANATAUAVARANANANAWAAAAAAAXANANAPAAAAAAAAAAAAAAAAAAAAAAAAAAAAAAAAAAAAAAAAAAAAAAAAAAAAAAAAAAAAAAAAAAAAAAAAAAAAAAAAAAAAAAAAAAAAAAAAAAAAAAAAAAAAAAAAAAAAAAAAAAAAAAAAAAAAAAAAAAAAAAAAAAAAAAAAAAAAAAAAAAAAAAAAAAAAAAAAAAAAAAAAAAAAAAAAAAAAAAAAAAAAAAAAA",
"YAYAKAKAZAaANARAbAAAAAAAAAHANANARAAAAAAAcANANAPAAAAAAAAAAAAAAAAAAAAAAAAAAAAAAAAAAAAAAAAAAAAAAAAAAAAAAAAAAAAAAAAAAAAAAAAAAAAAAAAAAAAAAAAAAAAAAAAAAAAAAAAAAAAAAAAAAAAAAAAAAAAAAAAAAAAAAAAAAAAAAAAAAAAAAAAAAAAAAAAAAAAAAAAAAAAAAAAAAAAAAAAAAAAAAAAAAAAAAAAAAAAAAAAA",
"YAYAYAYAdANANAeAAAYAYALALAAAfANANAgAAAAAcANANAPAAAAAAAAAAAAAAAAAAAAAAAAAAAAAAAAAAAAAAAAAAAAAAAAAAAAAAAAAAAAAAAAAAAAAAAAAAAAAAAAAAAAAAAAAAAAAAAAAAAAAAAAAAAAAAAAAAAAAAAAAAAAAAAAAAAAAAAAAAAAAAAAAAAAAAAAAAAAAAAAAAAAAAAAAAAAAAAAAAAAAAAAAAAAAAAAAAAAAAAAAAAAAAAAA",
"YAYAYAYAhANANAiAYAYAYALALAjAkARAlAmAAAnAoANANARAlAQAAAAAAAdApAqANArAFAkAAAAAAAAAsAlAGAPApAtANAuAvALAAAAAAAAAgAwAuANAaAxAwAyAAAAAAAAAAAAAAAAAAAAAzA0A0A0A0A0A0A0A0A0A0AzAAAAAAAAAAAAAAAAAAAAAAAAAAAAAAAAAAAAAAAAAAAAAAAAAAAAAAAAAAAAAAAAAAAAAAAAAAAAAAAAAAAAAAAAA",
"AAAAAAYA1ANANAqA2AYAYAAAAAjAjAAAYAYAAAlANANANANANAhAAAAADANANANANANANANAMAAAAAAA3ANAtAaANANANANANA4AAAAAAAbAqANANANANANANA5A6AAAAAAAAAAAAAAAAAAARANANANANANANANANANANAuAAAAAAAAAAAAAAAAAAAAAAAAAAAAAAAAAAAAAAAAAAAAAAAAAAAAAAAAAAAAAAAAAAAAAAAAAAAAAAAAAAAAAAAAA",
"AAAAAAAAKA7ANANANAOA8A9AbAjAjAjAYAYAAA+A9ANANA/A6AIAAA9ANANAABQAbAzArANANAXAAAAA3ANANANABByAbA8ANANACBAAAADANANA0AyAcADBNANAVAAAAAAAAAAAAAAAAAAAEAtAtAtAtAtAtAtAtAtAtAlAAAAAAAAAAAAAAAAAAAAAAAAAAAAAAAAAAAAAAAAAAAAAAAAAAAAAAAAAAAAAAAAAAAAAAAAAAAAAAAAAAAAAAAAA",
"AAAAAAAAAAAADANANANANANANAuABBIAYAYAAAAAcANANAPAAAAAEBtANARAFBAAAAAAIAaANATAAAAA3ANANASAAAAAAAAATANANAJAAAABNATAAAAAAAAAFANAoAAAAAAAAAAAAAAAAAAAAAAAAAAAAAAAAAAAAAAAAAAAAAAAAAAAAAAAAAAAAAAAAAAAAAAAAAAAAAAAAAAAAAAAAAAAAAAAAAAAAAAAAAAAAAAAAAAAAAAAAAAAAAAAAAAA",
"AAAAAAAAAAAAAA6A3ArANANANANANAGBHBYAAAAAcANANAPAAAAAPANANAIBAAAAAAAAAAVANAaAAAAA3ANANAJBAAAAAAAAmANANAKBAAVANANAGAbAAAAAFBAAAAAAAAAAAAAAAAAAAAAAAAAAAAAAAAAAAAAAAAAAAAAAAAAAAAAAAAAAAAAAAAAAAAAAAAAAAAAAAAAAAAAAAAAAAAAAAAAAAAAAAAAAAAAAAAAAAAAAAAAAAAAAAAAAAAAA",
"AAAAAAAAAAAAAAAAAAAALBMBNBaANANAaAHBAAAAcANANAPAAAAA0ANANAxATATATATATAqANANAgAAA3ANARAAAAAAAAAAAOBNANACAAAzANANANANAPBQBQAAAAAAAAAAAAAAAAAAAAAAAgA+A+A+A+A+A+A+A+A+A+AgAAAAAAAAAAAAAAAAAAAAAAAAAAAAAAAAAAAAAAAAAAAAAAAAAAAAAAAAAAAAAAAAAAAAAAAAAAAAAAAAAAAAAAAAA",
"AAAAAAAAAAAAAAAAAAAAAAAAAAyAVANANABBAAAAcANANAPAAAAARBNANANANANANANANANANANAQAAA3ANASBAAAAAAAAAAAANANAnAAAAAzAtANANANANANArAkAAAAAAAAAAAAAAAAAAARANANANANANANANANANANAuAAAAAAAAAAAAAAAAAAAAAAAAAAAAAAAAAAAAAAAAAAAAAAAAAAAAAAAAAAAAAAAAAAAAAAAAAAAAAAAAAAAAAAAAA",
"AAAAAAFBrAaASAAAAAAAAAAAAAAAAAqANAoAAAAAcANANAPAAAAATBNANA/AIBIBIBIBIBIBIBIByAAA3ANAUBAAAAAAAAAAEBNANA/AAAAAAAJAQAnARANANANAaAOBAAAAAAAAAAAAAAAARANANANANANANANANANANAuAAAAAAAAAAAAAAAAAAAAAAAAAAAAAAAAAAAAAAAAAAAAAAAAAAAAAAAAAAAAAAAAAAAAAAAAAAAAAAAAAAAAAAAAA",
"AAAAAAAA5ANAqAAAAAAAAAAAAAAAAAUBNAoAAAAAcANANAPAAAAAzANANAmAAAAAAAAAAAbAQAgAAAAA3ANAOAAAAAAAAAAA6ANANAkAAAbAdAbAAAAAAAgAVBNANAWAAAAAAAAAAAAAAAAAyABABABABABABABABABABAbAAAAAAAAAAAAAAAAAAAAAAAAAAAAAAAAAAAAAAAAAAAAAAAAAAAAAAAAAAAAAAAAAAAAAAAAAAAAAAAAAAAAAAAAA",
"AAAAAAAAVANANADAJAAAAAAAAAAA6ANANARBAAAAkANANAWBAAAAgANANATAAAAAAAAAFBRANANAyAAA3ANANAWAAAAAAAAAVANANAJAIANANAVAAAAAAAAAPANANAsAAAAAAAAAAAAAAAAAAAAAAAAAAAAAAAAAAAAAAAAAAAAAAAAAAAAAAAAAAAAAAAAAAAAAAAAAAAAAAAAAAAAAAAAAAAAAAAAAAAAAAAAAAAAAAAAAAAAAAAAAAAAAAAAA",
"AAAAAAAAXAaANANAxAsAPAgAdAnANANANAKBAAAABANANADA+AEBAAwANANAXBEBAAyA3ANANAFAAAAA3ANANAtAPAAAAAvANANAQBAAAAUBNANA9AEBAAgAVBNANAgAAAAAAAAAAAAAAAAAAAAAAAAAAAAAAAAAAAAAAAAAAAAAAAAAAAAAAAAAAAAAAAAAAAAAAAAAAAAAAAAAAAAAAAAAAAAAAAAAAAAAAAAAAAAAAAAAAAAAAAAAAAAAAAAA",
"AAAAAAAAAAXAGBNANANANANANANANAaAdAAAAAAAFBNANANANAYBAAIArANANANArANANANAGBbAAAAA3ANANANANAGB5ANANApAAAAAAAZBNANANANAqANANANAVAAAAAAAAAAAAAAAAAAAAAAAAAAAAAAAAAAAAAAAAAAAAAAAAAAAAAAAAAAAAAAAAAAAAAAAAAAAAAAAAAAAAAAAAAAAAAAAAAAAAAAAAAAAAAAAAAAAAAAAAAAAAAAAAAAA",
"AAAAAAAAAAAAIAUAPBNANANANAtAaBXAAAAAAAAAAAIB5ANANAbBAAAAEBDAaANANANANA4AgAAAAAAA3ANArARBNANANANAVAEBAAAAAAAAdARANANANANAtAYBAAAAAAAAAAAAAAAAAAAAAAAAAAAAAAAAAAAAAAAAAAAAAAAAAAAAAAAAAAAAAAAAAAAAAAAAAAAAAAAAAAAAAAAAAAAAAAAAAAAAAAAAAAAAAAAAAAAAAAAAAAAAAAAAAAAA",
"AAAAAAAAAAAAAAAAAAFBkAcBgAAAAAAAAAAAAAAAAAAAAAgALBJAAAAAAAAAAABAdAcAEBAAAAAAAAAA3ANArAAAFBPAQAJBAAAAAAAAAAAAAAAAyAWBdAyAAAAAAAAAAAAAAAAAAAAAAAAAAAAAAAAAAAAAAAAAAAAAAAAAAAAAAAAAAAAAAAAAAAAAAAAAAAAAAAAAAAAAAAAAAAAAAAAAAAAAAAAAAAAAAAAAAAAAAAAAAAAAAAAAAAAAAAAA",
"AAAAAAAAAAAAAAAAAAAAAAAAAAAAAAAAAAAAAAAAAAAAAAAAAAAAAAAAAAAAAAAAAAAAAAAAAAAAAAAA3ANArAAAAAAAAAAAAAAAAAAAAAAAAAAAAAAAAAAAAAAAAAAAAAAAAAAAAAAAAAAAAAAAAAAAAAAAAAAAAAAAAAAAAAAAAAAAAAAAAAAAAAAAAAAAAAAAAAAAAAAAAAAAAAAAAAAAAAAAAAAAAAAAAAAAAAAAAAAAAAAAAAAAAAAAAAAA",
"AAAAAAAAAAAAAAAAAAAAAAAAAAAAAAAAAAAAAAAAAAAAAAAAAAAAAAAAAAAAAAAAAAAAAAAAAAAAAAAA3ANArAAAAAAAAAAAAAAAAAAAAAAAAAAAAAAAAAAAAAAAAAAAAAAAAAAAAAAAAAAAAAAAAAAAAAAAAAAAAAAAAAAAAAAAAAAAAAAAAAAAAAAAAAAAAAAAAAAAAAAAAAAAAAAAAAAAAAAAAAAAAAAAAAAAAAAAAAAAAAAAAAAAAAAAAAAA",
"AAAAAAAAAAAAAAAAAAAAAAAAAAAAAAAAAAAAAAAAAAAAAAAAAAAAAAAAAAAAAAAAAAAAAAAAAAAAAAAA3ANArAAAAAAAAAAAAAAAAAAAAAAAAAAAAAAAAAAAAAAAAAAAAAAAAAAAAAAAAAAAAAAAAAAAAAAAAAAAAAAAAAAAAAAAAAAAAAAAAAAAAAAAAAAAAAAAAAAAAAAAAAAAAAAAAAAAAAAAAAAAAAAAAAAAAAAAAAAAAAAAAAAAAAAAAAAA",
"AAAAAAAAAAAAAAAAAAAAAAAAAAAAAAAAAAAAAAAAAAAAAAAAAAAAAAAAAAAAAAAAAAAAAAAAAAAAAAAATBxAVAAAAAAAAAAAAAAAAAAAAAAAAAAAAAAAAAAAAAAAAAAAAAAAAAAAAAAAAAAAAAAAAAAAAAAAAAAAAAAAAAAAAAAAAAAAAAAAAAAAAAAAAAAAAAAAAAAAAAAAAAAAAAAAAAAAAAAAAAAAAAAAAAAAAAAAAAAAAAAAAAAAAAAAAAAA",
"AAAAAAAAAAAAAAAAAAAAAAAAAAAAAAAAAAAAAAAAAAAAAAAAAAAAAAAAAAAAAAAAAAAAAAAAAAAAAAAAAAAAAAAAAAAAAAAAAAAAAAAAAAAAAAAAAAAAAAAAAAAAAAAAAAAAAAAAAAAAAAAAAAAAAAAAAAAAAAAAAAAAAAAAAAAAAAAAAAAAAAAAAAAAAAAAAAAAAAAAAAAAAAAAAAAAAAAAAAAAAAAAAAAAAAAAAAAAAAAAAAAAAAAAAAAAAAAA",
"AAAAAAAAAAAAAAAAAAAAAAAAAAAAAAAAAAAAAAAAAAAAAAAAAAAAAAAAAAAAAAAAAAAAAAAAAAAAAAAAAAAAAAAAAAAAAAAAAAAAAAAAAAAAAAAAAAAAAAAAAAAAAAAAAAAAAAAAAAAAAAAAAAAAAAAAAAAAAAAAAAAAAAAAAAAAAAAAAAAAAAAAAAAAAAAAAAAAAAAAAAAAAAAAAAAAAAAAAAAAAAAAAAAAAAAAAAAAAAAAAAAAAAAAAAAAAAAA",
"AAAAAAAAAAAAAAAAAAAAAAAAAAAAAAAAAAAAAAAAAAAAAAAAAAAAAAAAAAAAAAAAAAAAAAAAAAAAAAAAAAAAAAAAAAAAAAAAAAAAAAAAAAAAAAAAAAAAAAAAAAAAAAAAAAAAAAAAAAAAAAAAAAAAAAAAAAAAAAAAAAAAAAAAAAAAAAAAAAAAAAAAAAAAAAAAAAAAAAAAAAAAAAAAAAAAAAAAAAAAAAAAAAAAAAAAAAAAAAAAAAAAAAAAAAAAAAAA",
"AAAAAAAAAAAAAAAAAAAAAAAAAAAAAAAAAAAAAAAAAAAAAAAAAAAAAAAAAAAAAAAAAAAAAAAAAAAAAAAAAAAAAAAAAAAAAAAAAAAAAAAAAAAAAAAAAAAAAAAAAAAAAAAAAAAAAAAAAAAAAAAAAAAAAAAAAAAAAAAAAAAAAAAAAAAAAAAAAAAAAAAAAAAAAAAAAAAAAAAAAAAAAAAAAAAAAAAAAAAAAAAAAAAAAAAAAAAAAAAAAAAAAAAAAAAAAAAA"
};
