/* XPM */
static char *tile_xpm[] = {
"32 32 5 1",
"0	c #165612",
"1	c #1C6C19",
"2	c #18631D",
"3	c #268323",
"4	c #0B3E14",
"00000000000000000010000000100000",
"00200100000003000020000000100000",
"00000400000000300000003000200030",
"00000000010000100100000100000300",
"00000000010000200000100100000100",
"00030000020000003001000200000100",
"00003030000000030000000003000203",
"10001001000000010000300000300000",
"10002001003000020001000100100000",
"20000000000100000002000100200000",
"00000000000103000000000000000300",
"00000030000200100300300003003000",
"30000100000000200030010010001000",
"00000100300000000010010010002001",
"00000400030010000010020020000002",
"00030000010010000020000000010000",
"00001000010000300000000000000000",
"00001000020003003000000003000000",
"00001000000001000300030000300300",
"00002001000001000100100000103000",
"00000000000002000200100000201000",
"00300000100000000000200010002000",
"00010003003000000000000100000000",
"10010001030001000300000000000000",
"10000001020001001000000003000000",
"20003002000000001000100000100000",
"00000300000000002000030000100000",
"00000100000003000000010000200000",
"00000100300030000000020000000001",
"00000200010010000300000030000030",
"03000000010010000020000100000010",
"00100030020020000010000200030020"
};
